<?xml version="1.0" encoding="UTF-8"?>
<svg xmlns="http://www.w3.org/2000/svg" xmlns:xlink="http://www.w3.org/1999/xlink" width="528pt" height="528pt" viewBox="0 0 528 528" version="1.1">
<g id="surface1">
<path style=" stroke:none;fill-rule:nonzero;fill:#3E2723;fill-opacity:1;" d="M 297 145.75 L 429 145.75 L 429 296.789063 L 297 296.789063 Z "/>
<path style=" stroke:none;fill-rule:nonzero;fill:#2196F3;fill-opacity:1;" d="M 404.25 286 C 404.25 286 379.839844 282.558594 363 282.558594 C 346.160156 282.558594 321.75 286 321.75 286 C 321.75 286 231 302.796875 231 396 L 495 396 C 495 303.148438 404.25 286 404.25 286 "/>
<path style=" stroke:none;fill-rule:nonzero;fill:#EF8D3C;fill-opacity:1;" d="M 363 327.25 C 347.171875 327.25 324.5 286 324.5 286 L 324.5 231 L 401.5 231 L 401.5 286 C 401.5 286 378.828125 327.25 363 327.25 "/>
<path style=" stroke:none;fill-rule:nonzero;fill:#FFAA45;fill-opacity:1;" d="M 440 198 C 440 239.007813 404.007813 275 363 275 C 321.980469 275 286 239.007813 286 198 L 286 132 C 286 90.992188 440 69.015625 440 132 Z M 363 341 C 394.910156 341 401.5 286 401.5 286 C 401.5 286 380.996094 319 363 319 C 345.003906 319 324.5 286 324.5 286 C 324.5 286 331.089844 341 363 341 "/>
<path style=" stroke:none;fill-rule:nonzero;fill:#0D47A1;fill-opacity:1;" d="M 363 363 C 402.070313 363 418.726563 319.746094 422.871094 291.863281 C 412.015625 287.539063 404.25 286 404.25 286 C 404.25 286 403.117188 285.847656 401.5 285.636719 L 401.5 286 C 401.5 286 394.910156 341 363 341 C 331.089844 341 324.5 286 324.5 286 L 324.5 285.636719 C 322.882813 285.847656 321.75 286 321.75 286 C 321.75 286 313.984375 287.507813 303.117188 291.808594 C 307.253906 319.691406 323.90625 363 363 363 Z "/>
<path style=" stroke:none;fill-rule:nonzero;fill:#784719;fill-opacity:1;" d="M 385 187 C 385 180.9375 389.929688 176 396 176 C 402.070313 176 407 180.9375 407 187 C 407 193.0625 402.070313 198 396 198 C 389.929688 198 385 193.0625 385 187 M 319 187 C 319 193.0625 323.929688 198 330 198 C 336.070313 198 341 193.0625 341 187 C 341 180.9375 336.070313 176 330 176 C 323.929688 176 319 180.9375 319 187 "/>
<path style=" stroke:none;fill-rule:nonzero;fill:#4E342E;fill-opacity:1;" d="M 363 66 C 312.882813 66 242 88.980469 242 253 L 297 296.78125 L 297 176 L 396 121 L 429 165 L 429 297 L 484 242 C 484 208.789063 481.195313 82.5 396 82.5 L 385 66 Z "/>
<path style=" stroke:none;fill-rule:nonzero;fill:#FFA726;fill-opacity:1;" d="M 253 258.5 C 253 267.609375 245.609375 275 236.5 275 C 227.382813 275 220 267.609375 220 258.5 C 220 249.390625 227.382813 242 236.5 242 C 245.609375 242 253 249.390625 253 258.5 M 110 258.5 C 110 249.390625 102.609375 242 93.5 242 C 84.390625 242 77 249.390625 77 258.5 C 77 267.609375 84.390625 275 93.5 275 C 102.609375 275 110 267.609375 110 258.5 "/>
<path style=" stroke:none;fill-rule:nonzero;fill:#FF9800;fill-opacity:1;" d="M 209 352 C 209 352 209 396 165 396 C 121 396 121 352 121 352 "/>
<path style=" stroke:none;fill-rule:nonzero;fill:#4FC3F7;fill-opacity:1;" d="M 206.25 352 L 165 360.46875 L 123.75 352 C 123.75 352 33 368.796875 33 462 L 297 462 C 297 369.148438 206.25 352 206.25 352 "/>
<path style=" stroke:none;fill-rule:nonzero;fill:#FF9800;fill-opacity:1;" d="M 165 396 C 121 396 121 352 121 352 L 121 308 L 209 308 L 209 352 C 209 352 209 396 165 396 Z "/>
<path style=" stroke:none;fill-rule:nonzero;fill:#FFB74D;fill-opacity:1;" d="M 242 216.480469 C 242 151.8125 88 174.371094 88 216.480469 L 88 264.78125 C 88 306.84375 122.464844 341 165 341 C 207.527344 341 242 306.84375 242 264.769531 Z "/>
<path style=" stroke:none;fill-rule:nonzero;fill:#01579B;fill-opacity:1;" d="M 165 418 C 198.648438 418 226.359375 392.789063 230.429688 360.25 C 220.703125 355.871094 212.796875 353.574219 208.933594 352.628906 C 208.59375 376.617188 189.089844 396 165 396 C 140.910156 396 121.394531 376.617188 121.066406 352.605469 C 117.183594 353.550781 109.285156 355.828125 99.5625 360.171875 C 103.585938 392.753906 131.328125 418 165 418 Z "/>
<path style=" stroke:none;fill-rule:nonzero;fill:#795548;fill-opacity:1;" d="M 165 132 C 111.539063 132 77 179.441406 77 221.890625 L 77 242 L 99 264 L 99 220 L 200.199219 187 L 231 220 L 231 264 L 253 242 L 253 233.101563 C 253 197.703125 243.859375 158.269531 200.199219 149.589844 L 191.390625 132 Z "/>
<path style=" stroke:none;fill-rule:nonzero;fill:#784719;fill-opacity:1;" d="M 187 253 C 187 246.9375 191.929688 242 198 242 C 204.070313 242 209 246.9375 209 253 C 209 259.0625 204.070313 264 198 264 C 191.929688 264 187 259.0625 187 253 M 121 253 C 121 259.0625 125.929688 264 132 264 C 138.070313 264 143 259.0625 143 253 C 143 246.9375 138.070313 242 132 242 C 125.929688 242 121 246.9375 121 253 "/>
</g>
</svg>
