<?xml version="1.0" encoding="utf-8" ?>
<svg xmlns="http://www.w3.org/2000/svg" xmlns:xlink="http://www.w3.org/1999/xlink" width="528" height="528">
	<path fill="rgb(220,237,200)" stroke="none" d="M264 110L264 66C206.801 66 154 89.1016 116.602 127.602L147.398 158.398C177.102 128.699 218.898 110 264 110L264 110Z"/>
	<path fill="rgb(124,179,66)" stroke="none" d="M286 67.1016L286 33L220 88L286 143L286 112.199C366.301 123.199 429 192.5 429 276.102C429 367.398 355.301 441.102 264 441.102C172.699 441.102 99 367.398 99 276.102C99 231 117.699 189.199 147.398 159.5L116.602 128.699C78.1016 165 55 217.801 55 275C55 390.5 148.5 484 264 484C379.5 484 473 390.5 473 275C473 167.199 390.5 78.1016 286 67.1016L286 67.1016Z"/>
</svg>
