<?xml version="1.0" encoding="utf-8" ?>
<svg xmlns="http://www.w3.org/2000/svg" xmlns:xlink="http://www.w3.org/1999/xlink" width="528" height="528">
	<path fill="rgb(124,179,66)" stroke="none" transform="matrix(1.19249e-08 1 -1 1.19249e-08 528 0)" d="M419.102 343.199L213.398 264L419.102 184.801C435.602 178.199 444.398 159.5 437.801 141.898C431.199 125.398 412.5 116.602 394.898 123.199L108.898 233.199C96.8008 237.602 88 250.801 88 264C88 277.199 96.8008 290.398 108.898 294.801L394.898 404.801C399.301 405.898 402.602 407 407 407C420.199 407 432.301 399.301 437.801 386.102C444.398 368.5 435.602 349.801 419.102 343.199L419.102 343.199Z"/>
	<path fill="rgb(30,136,229)" stroke="none" transform="matrix(1.19249e-08 1 -1 1.19249e-08 528 0)" d="M198 264C198 306.527 163.527 341 121 341C78.4727 341 44 306.527 44 264C44 221.473 78.4727 187 121 187C163.527 187 198 221.473 198 264L198 264Z"/>
	<path fill="rgb(30,136,229)" stroke="none" transform="matrix(1.19249e-08 1 -1 1.19249e-08 528 0)" d="M484 154C484 196.527 449.527 231 407 231C364.473 231 330 196.527 330 154C330 111.473 364.473 77 407 77C449.527 77 484 111.473 484 154L484 154Z"/>
	<path fill="rgb(30,136,229)" stroke="none" transform="matrix(1.19249e-08 1 -1 1.19249e-08 528 0)" d="M484 374C484 416.527 449.527 451 407 451C364.473 451 330 416.527 330 374C330 331.473 364.473 297 407 297C449.527 297 484 331.473 484 374L484 374Z"/>
</svg>