<?xml version="1.0" encoding="UTF-8"?>
<svg xmlns="http://www.w3.org/2000/svg" xmlns:xlink="http://www.w3.org/1999/xlink" width="528pt" height="528pt" viewBox="0 0 528 528" version="1.1">
<g id="surface1">
<path style=" stroke:none;fill-rule:nonzero;fill:#FF9800;fill-opacity:1;" d="M 264 407 C 209 407 209 341 209 341 L 209 275 L 319 275 L 319 341 C 319 341 319 407 264 407 Z "/>
<path style=" stroke:none;fill-rule:nonzero;fill:#FFA726;fill-opacity:1;" d="M 385 209 C 385 221.164063 375.144531 231 363 231 C 350.84375 231 341 221.164063 341 209 C 341 196.84375 350.84375 187 363 187 C 375.144531 187 385 196.84375 385 209 M 187 209 C 187 196.84375 177.144531 187 165 187 C 152.835938 187 143 196.84375 143 209 C 143 221.164063 152.835938 231 165 231 C 177.144531 231 187 221.164063 187 209 "/>
<path style=" stroke:none;fill-rule:nonzero;fill:#FFB74D;fill-opacity:1;" d="M 363 143 C 363 59.015625 165 88.320313 165 143 L 165 220 C 165 274.679688 209.308594 319 264 319 C 318.679688 319 363 274.679688 363 220 Z "/>
<path style=" stroke:none;fill-rule:nonzero;fill:#424242;fill-opacity:1;" d="M 264 44 C 197.175781 44 154 98.1875 154 165 L 154 190.136719 L 176 209 L 176 154 L 308 110 L 352 154 L 352 209 L 374 189.839844 L 374 165 C 374 120.726563 362.582031 76.824219 308 66 L 297 44 Z "/>
<path style=" stroke:none;fill-rule:nonzero;fill:#784719;fill-opacity:1;" d="M 297 209 C 297 202.9375 301.929688 198 308 198 C 314.070313 198 319 202.9375 319 209 C 319 215.0625 314.070313 220 308 220 C 301.929688 220 297 215.0625 297 209 M 209 209 C 209 215.0625 213.929688 220 220 220 C 226.070313 220 231 215.0625 231 209 C 231 202.9375 226.070313 198 220 198 C 213.929688 198 209 202.9375 209 209 "/>
<path style=" stroke:none;fill-rule:nonzero;fill:#4FC3F7;fill-opacity:1;" d="M 319 341 C 319 341 308 385 264 385 C 220 385 209 341 209 341 C 209 341 88 362.847656 88 484 L 440 484 C 440 363.273438 319 341 319 341 "/>
<path style=" stroke:none;fill-rule:nonzero;fill:#01579B;fill-opacity:1;" d="M 264 407 C 319 407 338.195313 363.769531 340.449219 347.292969 C 327.734375 342.628906 319 341 319 341 C 319 341 308 385 264 385 C 220 385 209 341 209 341 C 209 341 200.253906 342.59375 187.527344 347.226563 C 189.773438 363.671875 209 407 264 407 Z "/>
<path style=" stroke:none;fill-rule:nonzero;fill:#43A047;fill-opacity:1;" d="M 506 418 C 506 478.753906 456.742188 528 396 528 C 335.246094 528 286 478.753906 286 418 C 286 357.246094 335.246094 308 396 308 C 456.742188 308 506 357.246094 506 418 "/>
<path style=" stroke:none;fill-rule:nonzero;fill:#FFFFFF;fill-opacity:1;" d="M 374 352 L 418 352 L 418 484 L 374 484 Z "/>
<path style=" stroke:none;fill-rule:nonzero;fill:#FFFFFF;fill-opacity:1;" d="M 330 396 L 462 396 L 462 440 L 330 440 Z "/>
</g>
</svg>
